<svg xmlns="http://www.w3.org/2000/svg" viewBox="0 0 200 200" role="img" aria-label="Feinschliff gem">
  

  
  <polygon fill="#5a7aa8" points="100,28 70,70 100,60"></polygon>              
  <polygon fill="#3a5b8c" points="100,28 100,60 130,70"></polygon>             
  <polygon fill="#2d4770" points="30,88 70,70 100,60 100,88"></polygon>        
  <polygon fill="#1e3258" points="100,60 100,88 170,88 130,70"></polygon>      
  <polygon fill="#24395e" points="100,28 70,70 30,88"></polygon>               
  <polygon fill="#162a4a" points="100,28 130,70 170,88"></polygon>              

  
  <polygon fill="#1a2c4d" points="30,88 100,88 100,178"></polygon>
  <polygon fill="#0f1e3a" points="100,88 170,88 100,178"></polygon>

  
  <g fill="none" stroke="#0b1a33" stroke-width="1.4" stroke-linejoin="miter">
    <polygon points="100,28 30,88 100,178 170,88"></polygon>
    <line x1="30" y1="88" x2="170" y2="88"></line>
    <line x1="70" y1="70" x2="130" y2="70"></line>
    <line x1="100" y1="28" x2="100" y2="88"></line>
    <line x1="70" y1="70" x2="100" y2="60"></line>
    <line x1="130" y1="70" x2="100" y2="60"></line>
    <line x1="100" y1="88" x2="100" y2="178"></line>
  </g>
</svg>