<svg xmlns="http://www.w3.org/2000/svg" viewBox="0 0 200 200" role="img" aria-label="Feinschliff gem inverted">
  <polygon points="100,20 60,85 100,70 140,85" fill="#8aa5cc"></polygon>
  <polygon points="60,85 100,70 100,110" fill="#6e8bb6"></polygon>
  <polygon points="140,85 100,70 100,110" fill="#506f9c"></polygon>
  <polygon points="60,85 100,110 40,105" fill="#5d7ca8"></polygon>
  <polygon points="140,85 100,110 160,105" fill="#3e5a86"></polygon>
  <polygon points="40,105 100,110 100,180" fill="#466485"></polygon>
  <polygon points="160,105 100,110 100,180" fill="#2f4870"></polygon>
  <g fill="none" stroke="#0b1a33" stroke-width="1.2" stroke-linejoin="miter">
    <polygon points="100,20 60,85 40,105 100,180 160,105 140,85"></polygon>
    <polyline points="60,85 100,70 140,85"></polyline>
    <polyline points="100,70 100,110"></polyline>
    <polyline points="40,105 100,110 160,105"></polyline>
    <polyline points="100,110 100,180"></polyline>
  </g>
</svg>