<svg xmlns="http://www.w3.org/2000/svg" viewBox="0 0 200 200" role="img" aria-label="feinschmiede mark"><defs><linearGradient id="gold" x1="0" y1="0" x2="1" y2="1"><stop offset="0" stop-color="#E6C97A"/><stop offset="0.5" stop-color="#C9A24A"/><stop offset="1" stop-color="#8A6F2E"/></linearGradient></defs><g><g transform="rotate(-40 100 100)">
      <rect x="96" y="44" width="8" height="112" rx="4" fill="#8A6F2E"/>
      <rect x="97.4" y="48" width="2.4" height="104" rx="1.2" fill="#C9A24A" opacity="0.55"/>
      <g stroke="#7C612A" stroke-width="1.3" stroke-linejoin="round">
        <rect x="83" y="29" width="34" height="18" rx="3" fill="#C9A24A"/>
        <polygon points="117,31 126,35.5 126,40.5 117,45" fill="#8A6F2E"/></g>
      <rect x="85" y="31.5" width="26" height="4.5" rx="2.2" fill="#E6C97A" opacity="0.75"/>
      <rect x="97.5" y="32" width="5" height="12" rx="1.6" fill="#7C612A" opacity="0.45"/>
    </g><g transform="rotate(40 100 100)">
      <rect x="96" y="44" width="8" height="112" rx="4" fill="#8A6F2E"/>
      <rect x="97.4" y="48" width="2.4" height="104" rx="1.2" fill="#C9A24A" opacity="0.55"/>
      <g stroke="#7C612A" stroke-width="1.3" stroke-linejoin="round">
        <rect x="83" y="29" width="34" height="18" rx="3" fill="#C9A24A"/>
        <polygon points="117,31 126,35.5 126,40.5 117,45" fill="#8A6F2E"/></g>
      <rect x="85" y="31.5" width="26" height="4.5" rx="2.2" fill="#E6C97A" opacity="0.75"/>
      <rect x="97.5" y="32" width="5" height="12" rx="1.6" fill="#7C612A" opacity="0.45"/>
    </g></g><circle cx="100" cy="100" r="45" fill="none" stroke="url(#gold)" stroke-width="14"/>
      <circle cx="100" cy="100" r="52" fill="none" stroke="#7C612A" stroke-width="1.6" opacity="0.85"/>
      <circle cx="100" cy="100" r="38" fill="none" stroke="#7C612A" stroke-width="1.6" opacity="0.85"/>
      <path d="M 71 70 A 45 45 0 0 1 128 64" fill="none" stroke="#E6C97A" stroke-width="3"
            stroke-linecap="round" opacity="0.55"/><g transform="translate(60.00,59.80) scale(0.4)"><polygon fill="#8eb3e2" points="100,28 70,70 100,60"/><polygon fill="#5e8ac4" points="100,28 100,60 130,70"/><polygon fill="#4670ad" points="30,88 70,70 100,60 100,88"/><polygon fill="#2f5590" points="100,60 100,88 170,88 130,70"/><polygon fill="#547fb8" points="100,28 70,70 30,88"/><polygon fill="#1f3f73" points="100,28 130,70 170,88"/><polygon fill="#355a8b" points="30,88 70,88 100,178"/><polygon fill="#234168" points="70,88 100,88 100,178"/><polygon fill="#16304f" points="100,88 130,88 100,178"/><polygon fill="#0e2447" points="130,88 170,88 100,178"/><g fill="none" stroke="#08172e" stroke-width="0.9" stroke-linejoin="miter" stroke-opacity="0.55"><line x1="30" y1="88" x2="170" y2="88"/><line x1="70" y1="70" x2="130" y2="70"/><line x1="100" y1="28" x2="100" y2="88"/><line x1="70" y1="70" x2="100" y2="60"/><line x1="130" y1="70" x2="100" y2="60"/><line x1="100" y1="88" x2="100" y2="178"/><line x1="70" y1="88" x2="100" y2="178"/><line x1="130" y1="88" x2="100" y2="178"/></g><polygon fill="none" stroke="#08172e" stroke-width="1.7" stroke-linejoin="miter" points="100,28 30,88 100,178 170,88"/></g><path fill="#fff3d6" fill-opacity="0.92" d="M 113 79.8 C 113 84.264 117.464 86 119.2 86 C 117.464 86 113 87.736 113 92.2 C 113 87.736 108.536 86 106.8 86 C 108.536 86 113 84.264 113 79.8 Z"/></svg>
